<?xml version="1.0" encoding="utf-8" standalone="no"?>
<!DOCTYPE svg PUBLIC "-//W3C//DTD SVG 1.1//EN"
  "http://www.w3.org/Graphics/SVG/1.1/DTD/svg11.dtd">
<svg xmlns:xlink="http://www.w3.org/1999/xlink" width="460.8pt" height="345.6pt" viewBox="0 0 460.8 345.6" xmlns="http://www.w3.org/2000/svg" version="1.1">
 <metadata>
  <rdf:RDF xmlns:dc="http://purl.org/dc/elements/1.1/" xmlns:cc="http://creativecommons.org/ns#" xmlns:rdf="http://www.w3.org/1999/02/22-rdf-syntax-ns#">
   <cc:Work>
    <dc:type rdf:resource="http://purl.org/dc/dcmitype/StillImage"/>
    <dc:date>2024-01-13T16:39:34.266998</dc:date>
    <dc:format>image/svg+xml</dc:format>
    <dc:creator>
     <cc:Agent>
      <dc:title>Matplotlib v3.5.0, https://matplotlib.org/</dc:title>
     </cc:Agent>
    </dc:creator>
   </cc:Work>
  </rdf:RDF>
 </metadata>
 <defs>
  <style type="text/css">*{stroke-linejoin: round; stroke-linecap: butt}</style>
 </defs>
 <g id="figure_1">
  <g id="patch_1">
   <path d="M 0 345.6 
L 460.8 345.6 
L 460.8 0 
L 0 0 
z
" style="fill: #ffffff"/>
  </g>
  <g id="axes_1">
   <g id="patch_2">
    <path d="M 57.6 307.584 
L 414.72 307.584 
L 414.72 41.472 
L 57.6 41.472 
z
" style="fill: #ffffff"/>
   </g>
   <g id="matplotlib.axis_1">
    <g id="xtick_1">
     <g id="line2d_1">
      <path d="M 73.832727 307.584 
L 73.832727 41.472 
" clip-path="url(#p2295f2f0ed)" style="fill: none; stroke: #b0b0b0; stroke-width: 0.8; stroke-linecap: square"/>
     </g>
     <g id="line2d_2">
      <defs>
       <path id="md7b0dd9b56" d="M 0 0 
L 0 3.5 
" style="stroke: #000000; stroke-width: 0.8"/>
      </defs>
      <g>
       <use xlink:href="#md7b0dd9b56" x="73.832727" y="307.584" style="stroke: #000000; stroke-width: 0.8"/>
      </g>
     </g>
     <g id="text_1">
      <!-- 0 -->
      <g transform="translate(70.651477 322.182437)scale(0.1 -0.1)">
       <defs>
        <path id="DejaVuSans-30" d="M 2034 4250 
Q 1547 4250 1301 3770 
Q 1056 3291 1056 2328 
Q 1056 1369 1301 889 
Q 1547 409 2034 409 
Q 2525 409 2770 889 
Q 3016 1369 3016 2328 
Q 3016 3291 2770 3770 
Q 2525 4250 2034 4250 
z
M 2034 4750 
Q 2819 4750 3233 4129 
Q 3647 3509 3647 2328 
Q 3647 1150 3233 529 
Q 2819 -91 2034 -91 
Q 1250 -91 836 529 
Q 422 1150 422 2328 
Q 422 3509 836 4129 
Q 1250 4750 2034 4750 
z
" transform="scale(0.015625)"/>
       </defs>
       <use xlink:href="#DejaVuSans-30"/>
      </g>
     </g>
    </g>
    <g id="xtick_2">
     <g id="line2d_3">
      <path d="M 138.763636 307.584 
L 138.763636 41.472 
" clip-path="url(#p2295f2f0ed)" style="fill: none; stroke: #b0b0b0; stroke-width: 0.8; stroke-linecap: square"/>
     </g>
     <g id="line2d_4">
      <g>
       <use xlink:href="#md7b0dd9b56" x="138.763636" y="307.584" style="stroke: #000000; stroke-width: 0.8"/>
      </g>
     </g>
     <g id="text_2">
      <!-- 2 -->
      <g transform="translate(135.582386 322.182437)scale(0.1 -0.1)">
       <defs>
        <path id="DejaVuSans-32" d="M 1228 531 
L 3431 531 
L 3431 0 
L 469 0 
L 469 531 
Q 828 903 1448 1529 
Q 2069 2156 2228 2338 
Q 2531 2678 2651 2914 
Q 2772 3150 2772 3378 
Q 2772 3750 2511 3984 
Q 2250 4219 1831 4219 
Q 1534 4219 1204 4116 
Q 875 4013 500 3803 
L 500 4441 
Q 881 4594 1212 4672 
Q 1544 4750 1819 4750 
Q 2544 4750 2975 4387 
Q 3406 4025 3406 3419 
Q 3406 3131 3298 2873 
Q 3191 2616 2906 2266 
Q 2828 2175 2409 1742 
Q 1991 1309 1228 531 
z
" transform="scale(0.015625)"/>
       </defs>
       <use xlink:href="#DejaVuSans-32"/>
      </g>
     </g>
    </g>
    <g id="xtick_3">
     <g id="line2d_5">
      <path d="M 203.694545 307.584 
L 203.694545 41.472 
" clip-path="url(#p2295f2f0ed)" style="fill: none; stroke: #b0b0b0; stroke-width: 0.8; stroke-linecap: square"/>
     </g>
     <g id="line2d_6">
      <g>
       <use xlink:href="#md7b0dd9b56" x="203.694545" y="307.584" style="stroke: #000000; stroke-width: 0.8"/>
      </g>
     </g>
     <g id="text_3">
      <!-- 4 -->
      <g transform="translate(200.513295 322.182437)scale(0.1 -0.1)">
       <defs>
        <path id="DejaVuSans-34" d="M 2419 4116 
L 825 1625 
L 2419 1625 
L 2419 4116 
z
M 2253 4666 
L 3047 4666 
L 3047 1625 
L 3713 1625 
L 3713 1100 
L 3047 1100 
L 3047 0 
L 2419 0 
L 2419 1100 
L 313 1100 
L 313 1709 
L 2253 4666 
z
" transform="scale(0.015625)"/>
       </defs>
       <use xlink:href="#DejaVuSans-34"/>
      </g>
     </g>
    </g>
    <g id="xtick_4">
     <g id="line2d_7">
      <path d="M 268.625455 307.584 
L 268.625455 41.472 
" clip-path="url(#p2295f2f0ed)" style="fill: none; stroke: #b0b0b0; stroke-width: 0.8; stroke-linecap: square"/>
     </g>
     <g id="line2d_8">
      <g>
       <use xlink:href="#md7b0dd9b56" x="268.625455" y="307.584" style="stroke: #000000; stroke-width: 0.8"/>
      </g>
     </g>
     <g id="text_4">
      <!-- 6 -->
      <g transform="translate(265.444205 322.182437)scale(0.1 -0.1)">
       <defs>
        <path id="DejaVuSans-36" d="M 2113 2584 
Q 1688 2584 1439 2293 
Q 1191 2003 1191 1497 
Q 1191 994 1439 701 
Q 1688 409 2113 409 
Q 2538 409 2786 701 
Q 3034 994 3034 1497 
Q 3034 2003 2786 2293 
Q 2538 2584 2113 2584 
z
M 3366 4563 
L 3366 3988 
Q 3128 4100 2886 4159 
Q 2644 4219 2406 4219 
Q 1781 4219 1451 3797 
Q 1122 3375 1075 2522 
Q 1259 2794 1537 2939 
Q 1816 3084 2150 3084 
Q 2853 3084 3261 2657 
Q 3669 2231 3669 1497 
Q 3669 778 3244 343 
Q 2819 -91 2113 -91 
Q 1303 -91 875 529 
Q 447 1150 447 2328 
Q 447 3434 972 4092 
Q 1497 4750 2381 4750 
Q 2619 4750 2861 4703 
Q 3103 4656 3366 4563 
z
" transform="scale(0.015625)"/>
       </defs>
       <use xlink:href="#DejaVuSans-36"/>
      </g>
     </g>
    </g>
    <g id="xtick_5">
     <g id="line2d_9">
      <path d="M 333.556364 307.584 
L 333.556364 41.472 
" clip-path="url(#p2295f2f0ed)" style="fill: none; stroke: #b0b0b0; stroke-width: 0.8; stroke-linecap: square"/>
     </g>
     <g id="line2d_10">
      <g>
       <use xlink:href="#md7b0dd9b56" x="333.556364" y="307.584" style="stroke: #000000; stroke-width: 0.8"/>
      </g>
     </g>
     <g id="text_5">
      <!-- 8 -->
      <g transform="translate(330.375114 322.182437)scale(0.1 -0.1)">
       <defs>
        <path id="DejaVuSans-38" d="M 2034 2216 
Q 1584 2216 1326 1975 
Q 1069 1734 1069 1313 
Q 1069 891 1326 650 
Q 1584 409 2034 409 
Q 2484 409 2743 651 
Q 3003 894 3003 1313 
Q 3003 1734 2745 1975 
Q 2488 2216 2034 2216 
z
M 1403 2484 
Q 997 2584 770 2862 
Q 544 3141 544 3541 
Q 544 4100 942 4425 
Q 1341 4750 2034 4750 
Q 2731 4750 3128 4425 
Q 3525 4100 3525 3541 
Q 3525 3141 3298 2862 
Q 3072 2584 2669 2484 
Q 3125 2378 3379 2068 
Q 3634 1759 3634 1313 
Q 3634 634 3220 271 
Q 2806 -91 2034 -91 
Q 1263 -91 848 271 
Q 434 634 434 1313 
Q 434 1759 690 2068 
Q 947 2378 1403 2484 
z
M 1172 3481 
Q 1172 3119 1398 2916 
Q 1625 2713 2034 2713 
Q 2441 2713 2670 2916 
Q 2900 3119 2900 3481 
Q 2900 3844 2670 4047 
Q 2441 4250 2034 4250 
Q 1625 4250 1398 4047 
Q 1172 3844 1172 3481 
z
" transform="scale(0.015625)"/>
       </defs>
       <use xlink:href="#DejaVuSans-38"/>
      </g>
     </g>
    </g>
    <g id="xtick_6">
     <g id="line2d_11">
      <path d="M 398.487273 307.584 
L 398.487273 41.472 
" clip-path="url(#p2295f2f0ed)" style="fill: none; stroke: #b0b0b0; stroke-width: 0.8; stroke-linecap: square"/>
     </g>
     <g id="line2d_12">
      <g>
       <use xlink:href="#md7b0dd9b56" x="398.487273" y="307.584" style="stroke: #000000; stroke-width: 0.8"/>
      </g>
     </g>
     <g id="text_6">
      <!-- 10 -->
      <g transform="translate(392.124773 322.182437)scale(0.1 -0.1)">
       <defs>
        <path id="DejaVuSans-31" d="M 794 531 
L 1825 531 
L 1825 4091 
L 703 3866 
L 703 4441 
L 1819 4666 
L 2450 4666 
L 2450 531 
L 3481 531 
L 3481 0 
L 794 0 
L 794 531 
z
" transform="scale(0.015625)"/>
       </defs>
       <use xlink:href="#DejaVuSans-31"/>
       <use xlink:href="#DejaVuSans-30" x="63.623047"/>
      </g>
     </g>
    </g>
    <g id="text_7">
     <!-- MET [hours] -->
     <g transform="translate(206.085 335.860562)scale(0.1 -0.1)">
      <defs>
       <path id="DejaVuSans-4d" d="M 628 4666 
L 1569 4666 
L 2759 1491 
L 3956 4666 
L 4897 4666 
L 4897 0 
L 4281 0 
L 4281 4097 
L 3078 897 
L 2444 897 
L 1241 4097 
L 1241 0 
L 628 0 
L 628 4666 
z
" transform="scale(0.015625)"/>
       <path id="DejaVuSans-45" d="M 628 4666 
L 3578 4666 
L 3578 4134 
L 1259 4134 
L 1259 2753 
L 3481 2753 
L 3481 2222 
L 1259 2222 
L 1259 531 
L 3634 531 
L 3634 0 
L 628 0 
L 628 4666 
z
" transform="scale(0.015625)"/>
       <path id="DejaVuSans-54" d="M -19 4666 
L 3928 4666 
L 3928 4134 
L 2272 4134 
L 2272 0 
L 1638 0 
L 1638 4134 
L -19 4134 
L -19 4666 
z
" transform="scale(0.015625)"/>
       <path id="DejaVuSans-20" transform="scale(0.015625)"/>
       <path id="DejaVuSans-5b" d="M 550 4863 
L 1875 4863 
L 1875 4416 
L 1125 4416 
L 1125 -397 
L 1875 -397 
L 1875 -844 
L 550 -844 
L 550 4863 
z
" transform="scale(0.015625)"/>
       <path id="DejaVuSans-68" d="M 3513 2113 
L 3513 0 
L 2938 0 
L 2938 2094 
Q 2938 2591 2744 2837 
Q 2550 3084 2163 3084 
Q 1697 3084 1428 2787 
Q 1159 2491 1159 1978 
L 1159 0 
L 581 0 
L 581 4863 
L 1159 4863 
L 1159 2956 
Q 1366 3272 1645 3428 
Q 1925 3584 2291 3584 
Q 2894 3584 3203 3211 
Q 3513 2838 3513 2113 
z
" transform="scale(0.015625)"/>
       <path id="DejaVuSans-6f" d="M 1959 3097 
Q 1497 3097 1228 2736 
Q 959 2375 959 1747 
Q 959 1119 1226 758 
Q 1494 397 1959 397 
Q 2419 397 2687 759 
Q 2956 1122 2956 1747 
Q 2956 2369 2687 2733 
Q 2419 3097 1959 3097 
z
M 1959 3584 
Q 2709 3584 3137 3096 
Q 3566 2609 3566 1747 
Q 3566 888 3137 398 
Q 2709 -91 1959 -91 
Q 1206 -91 779 398 
Q 353 888 353 1747 
Q 353 2609 779 3096 
Q 1206 3584 1959 3584 
z
" transform="scale(0.015625)"/>
       <path id="DejaVuSans-75" d="M 544 1381 
L 544 3500 
L 1119 3500 
L 1119 1403 
Q 1119 906 1312 657 
Q 1506 409 1894 409 
Q 2359 409 2629 706 
Q 2900 1003 2900 1516 
L 2900 3500 
L 3475 3500 
L 3475 0 
L 2900 0 
L 2900 538 
Q 2691 219 2414 64 
Q 2138 -91 1772 -91 
Q 1169 -91 856 284 
Q 544 659 544 1381 
z
M 1991 3584 
L 1991 3584 
z
" transform="scale(0.015625)"/>
       <path id="DejaVuSans-72" d="M 2631 2963 
Q 2534 3019 2420 3045 
Q 2306 3072 2169 3072 
Q 1681 3072 1420 2755 
Q 1159 2438 1159 1844 
L 1159 0 
L 581 0 
L 581 3500 
L 1159 3500 
L 1159 2956 
Q 1341 3275 1631 3429 
Q 1922 3584 2338 3584 
Q 2397 3584 2469 3576 
Q 2541 3569 2628 3553 
L 2631 2963 
z
" transform="scale(0.015625)"/>
       <path id="DejaVuSans-73" d="M 2834 3397 
L 2834 2853 
Q 2591 2978 2328 3040 
Q 2066 3103 1784 3103 
Q 1356 3103 1142 2972 
Q 928 2841 928 2578 
Q 928 2378 1081 2264 
Q 1234 2150 1697 2047 
L 1894 2003 
Q 2506 1872 2764 1633 
Q 3022 1394 3022 966 
Q 3022 478 2636 193 
Q 2250 -91 1575 -91 
Q 1294 -91 989 -36 
Q 684 19 347 128 
L 347 722 
Q 666 556 975 473 
Q 1284 391 1588 391 
Q 1994 391 2212 530 
Q 2431 669 2431 922 
Q 2431 1156 2273 1281 
Q 2116 1406 1581 1522 
L 1381 1569 
Q 847 1681 609 1914 
Q 372 2147 372 2553 
Q 372 3047 722 3315 
Q 1072 3584 1716 3584 
Q 2034 3584 2315 3537 
Q 2597 3491 2834 3397 
z
" transform="scale(0.015625)"/>
       <path id="DejaVuSans-5d" d="M 1947 4863 
L 1947 -844 
L 622 -844 
L 622 -397 
L 1369 -397 
L 1369 4416 
L 622 4416 
L 622 4863 
L 1947 4863 
z
" transform="scale(0.015625)"/>
      </defs>
      <use xlink:href="#DejaVuSans-4d"/>
      <use xlink:href="#DejaVuSans-45" x="86.279297"/>
      <use xlink:href="#DejaVuSans-54" x="149.462891"/>
      <use xlink:href="#DejaVuSans-20" x="210.546875"/>
      <use xlink:href="#DejaVuSans-5b" x="242.333984"/>
      <use xlink:href="#DejaVuSans-68" x="281.347656"/>
      <use xlink:href="#DejaVuSans-6f" x="344.726562"/>
      <use xlink:href="#DejaVuSans-75" x="405.908203"/>
      <use xlink:href="#DejaVuSans-72" x="469.287109"/>
      <use xlink:href="#DejaVuSans-73" x="510.400391"/>
      <use xlink:href="#DejaVuSans-5d" x="562.5"/>
     </g>
    </g>
   </g>
   <g id="matplotlib.axis_2">
    <g id="ytick_1">
     <g id="line2d_13">
      <path d="M 57.6 295.488 
L 414.72 295.488 
" clip-path="url(#p2295f2f0ed)" style="fill: none; stroke: #b0b0b0; stroke-width: 0.8; stroke-linecap: square"/>
     </g>
     <g id="line2d_14">
      <defs>
       <path id="m1420f2cde9" d="M 0 0 
L -3.5 0 
" style="stroke: #000000; stroke-width: 0.8"/>
      </defs>
      <g>
       <use xlink:href="#m1420f2cde9" x="57.6" y="295.488" style="stroke: #000000; stroke-width: 0.8"/>
      </g>
     </g>
     <g id="text_8">
      <!-- 0.00 -->
      <g transform="translate(28.334375 299.287219)scale(0.1 -0.1)">
       <defs>
        <path id="DejaVuSans-2e" d="M 684 794 
L 1344 794 
L 1344 0 
L 684 0 
L 684 794 
z
" transform="scale(0.015625)"/>
       </defs>
       <use xlink:href="#DejaVuSans-30"/>
       <use xlink:href="#DejaVuSans-2e" x="63.623047"/>
       <use xlink:href="#DejaVuSans-30" x="95.410156"/>
       <use xlink:href="#DejaVuSans-30" x="159.033203"/>
      </g>
     </g>
    </g>
    <g id="ytick_2">
     <g id="line2d_15">
      <path d="M 57.6 260.420315 
L 414.72 260.420315 
" clip-path="url(#p2295f2f0ed)" style="fill: none; stroke: #b0b0b0; stroke-width: 0.8; stroke-linecap: square"/>
     </g>
     <g id="line2d_16">
      <g>
       <use xlink:href="#m1420f2cde9" x="57.6" y="260.420315" style="stroke: #000000; stroke-width: 0.8"/>
      </g>
     </g>
     <g id="text_9">
      <!-- 0.05 -->
      <g transform="translate(28.334375 264.219534)scale(0.1 -0.1)">
       <defs>
        <path id="DejaVuSans-35" d="M 691 4666 
L 3169 4666 
L 3169 4134 
L 1269 4134 
L 1269 2991 
Q 1406 3038 1543 3061 
Q 1681 3084 1819 3084 
Q 2600 3084 3056 2656 
Q 3513 2228 3513 1497 
Q 3513 744 3044 326 
Q 2575 -91 1722 -91 
Q 1428 -91 1123 -41 
Q 819 9 494 109 
L 494 744 
Q 775 591 1075 516 
Q 1375 441 1709 441 
Q 2250 441 2565 725 
Q 2881 1009 2881 1497 
Q 2881 1984 2565 2268 
Q 2250 2553 1709 2553 
Q 1456 2553 1204 2497 
Q 953 2441 691 2322 
L 691 4666 
z
" transform="scale(0.015625)"/>
       </defs>
       <use xlink:href="#DejaVuSans-30"/>
       <use xlink:href="#DejaVuSans-2e" x="63.623047"/>
       <use xlink:href="#DejaVuSans-30" x="95.410156"/>
       <use xlink:href="#DejaVuSans-35" x="159.033203"/>
      </g>
     </g>
    </g>
    <g id="ytick_3">
     <g id="line2d_17">
      <path d="M 57.6 225.35263 
L 414.72 225.35263 
" clip-path="url(#p2295f2f0ed)" style="fill: none; stroke: #b0b0b0; stroke-width: 0.8; stroke-linecap: square"/>
     </g>
     <g id="line2d_18">
      <g>
       <use xlink:href="#m1420f2cde9" x="57.6" y="225.35263" style="stroke: #000000; stroke-width: 0.8"/>
      </g>
     </g>
     <g id="text_10">
      <!-- 0.10 -->
      <g transform="translate(28.334375 229.151849)scale(0.1 -0.1)">
       <use xlink:href="#DejaVuSans-30"/>
       <use xlink:href="#DejaVuSans-2e" x="63.623047"/>
       <use xlink:href="#DejaVuSans-31" x="95.410156"/>
       <use xlink:href="#DejaVuSans-30" x="159.033203"/>
      </g>
     </g>
    </g>
    <g id="ytick_4">
     <g id="line2d_19">
      <path d="M 57.6 190.284945 
L 414.72 190.284945 
" clip-path="url(#p2295f2f0ed)" style="fill: none; stroke: #b0b0b0; stroke-width: 0.8; stroke-linecap: square"/>
     </g>
     <g id="line2d_20">
      <g>
       <use xlink:href="#m1420f2cde9" x="57.6" y="190.284945" style="stroke: #000000; stroke-width: 0.8"/>
      </g>
     </g>
     <g id="text_11">
      <!-- 0.15 -->
      <g transform="translate(28.334375 194.084164)scale(0.1 -0.1)">
       <use xlink:href="#DejaVuSans-30"/>
       <use xlink:href="#DejaVuSans-2e" x="63.623047"/>
       <use xlink:href="#DejaVuSans-31" x="95.410156"/>
       <use xlink:href="#DejaVuSans-35" x="159.033203"/>
      </g>
     </g>
    </g>
    <g id="ytick_5">
     <g id="line2d_21">
      <path d="M 57.6 155.21726 
L 414.72 155.21726 
" clip-path="url(#p2295f2f0ed)" style="fill: none; stroke: #b0b0b0; stroke-width: 0.8; stroke-linecap: square"/>
     </g>
     <g id="line2d_22">
      <g>
       <use xlink:href="#m1420f2cde9" x="57.6" y="155.21726" style="stroke: #000000; stroke-width: 0.8"/>
      </g>
     </g>
     <g id="text_12">
      <!-- 0.20 -->
      <g transform="translate(28.334375 159.016479)scale(0.1 -0.1)">
       <use xlink:href="#DejaVuSans-30"/>
       <use xlink:href="#DejaVuSans-2e" x="63.623047"/>
       <use xlink:href="#DejaVuSans-32" x="95.410156"/>
       <use xlink:href="#DejaVuSans-30" x="159.033203"/>
      </g>
     </g>
    </g>
    <g id="ytick_6">
     <g id="line2d_23">
      <path d="M 57.6 120.149576 
L 414.72 120.149576 
" clip-path="url(#p2295f2f0ed)" style="fill: none; stroke: #b0b0b0; stroke-width: 0.8; stroke-linecap: square"/>
     </g>
     <g id="line2d_24">
      <g>
       <use xlink:href="#m1420f2cde9" x="57.6" y="120.149576" style="stroke: #000000; stroke-width: 0.8"/>
      </g>
     </g>
     <g id="text_13">
      <!-- 0.25 -->
      <g transform="translate(28.334375 123.948794)scale(0.1 -0.1)">
       <use xlink:href="#DejaVuSans-30"/>
       <use xlink:href="#DejaVuSans-2e" x="63.623047"/>
       <use xlink:href="#DejaVuSans-32" x="95.410156"/>
       <use xlink:href="#DejaVuSans-35" x="159.033203"/>
      </g>
     </g>
    </g>
    <g id="ytick_7">
     <g id="line2d_25">
      <path d="M 57.6 85.081891 
L 414.72 85.081891 
" clip-path="url(#p2295f2f0ed)" style="fill: none; stroke: #b0b0b0; stroke-width: 0.8; stroke-linecap: square"/>
     </g>
     <g id="line2d_26">
      <g>
       <use xlink:href="#m1420f2cde9" x="57.6" y="85.081891" style="stroke: #000000; stroke-width: 0.8"/>
      </g>
     </g>
     <g id="text_14">
      <!-- 0.30 -->
      <g transform="translate(28.334375 88.881109)scale(0.1 -0.1)">
       <defs>
        <path id="DejaVuSans-33" d="M 2597 2516 
Q 3050 2419 3304 2112 
Q 3559 1806 3559 1356 
Q 3559 666 3084 287 
Q 2609 -91 1734 -91 
Q 1441 -91 1130 -33 
Q 819 25 488 141 
L 488 750 
Q 750 597 1062 519 
Q 1375 441 1716 441 
Q 2309 441 2620 675 
Q 2931 909 2931 1356 
Q 2931 1769 2642 2001 
Q 2353 2234 1838 2234 
L 1294 2234 
L 1294 2753 
L 1863 2753 
Q 2328 2753 2575 2939 
Q 2822 3125 2822 3475 
Q 2822 3834 2567 4026 
Q 2313 4219 1838 4219 
Q 1578 4219 1281 4162 
Q 984 4106 628 3988 
L 628 4550 
Q 988 4650 1302 4700 
Q 1616 4750 1894 4750 
Q 2613 4750 3031 4423 
Q 3450 4097 3450 3541 
Q 3450 3153 3228 2886 
Q 3006 2619 2597 2516 
z
" transform="scale(0.015625)"/>
       </defs>
       <use xlink:href="#DejaVuSans-30"/>
       <use xlink:href="#DejaVuSans-2e" x="63.623047"/>
       <use xlink:href="#DejaVuSans-33" x="95.410156"/>
       <use xlink:href="#DejaVuSans-30" x="159.033203"/>
      </g>
     </g>
    </g>
    <g id="ytick_8">
     <g id="line2d_27">
      <path d="M 57.6 50.014206 
L 414.72 50.014206 
" clip-path="url(#p2295f2f0ed)" style="fill: none; stroke: #b0b0b0; stroke-width: 0.8; stroke-linecap: square"/>
     </g>
     <g id="line2d_28">
      <g>
       <use xlink:href="#m1420f2cde9" x="57.6" y="50.014206" style="stroke: #000000; stroke-width: 0.8"/>
      </g>
     </g>
     <g id="text_15">
      <!-- 0.35 -->
      <g transform="translate(28.334375 53.813425)scale(0.1 -0.1)">
       <use xlink:href="#DejaVuSans-30"/>
       <use xlink:href="#DejaVuSans-2e" x="63.623047"/>
       <use xlink:href="#DejaVuSans-33" x="95.410156"/>
       <use xlink:href="#DejaVuSans-35" x="159.033203"/>
      </g>
     </g>
    </g>
    <g id="text_16">
     <!-- Error [m] -->
     <g transform="translate(22.254687 197.074094)rotate(-90)scale(0.1 -0.1)">
      <defs>
       <path id="DejaVuSans-6d" d="M 3328 2828 
Q 3544 3216 3844 3400 
Q 4144 3584 4550 3584 
Q 5097 3584 5394 3201 
Q 5691 2819 5691 2113 
L 5691 0 
L 5113 0 
L 5113 2094 
Q 5113 2597 4934 2840 
Q 4756 3084 4391 3084 
Q 3944 3084 3684 2787 
Q 3425 2491 3425 1978 
L 3425 0 
L 2847 0 
L 2847 2094 
Q 2847 2600 2669 2842 
Q 2491 3084 2119 3084 
Q 1678 3084 1418 2786 
Q 1159 2488 1159 1978 
L 1159 0 
L 581 0 
L 581 3500 
L 1159 3500 
L 1159 2956 
Q 1356 3278 1631 3431 
Q 1906 3584 2284 3584 
Q 2666 3584 2933 3390 
Q 3200 3197 3328 2828 
z
" transform="scale(0.015625)"/>
      </defs>
      <use xlink:href="#DejaVuSans-45"/>
      <use xlink:href="#DejaVuSans-72" x="63.183594"/>
      <use xlink:href="#DejaVuSans-72" x="102.546875"/>
      <use xlink:href="#DejaVuSans-6f" x="141.410156"/>
      <use xlink:href="#DejaVuSans-72" x="202.591797"/>
      <use xlink:href="#DejaVuSans-20" x="243.705078"/>
      <use xlink:href="#DejaVuSans-5b" x="275.492188"/>
      <use xlink:href="#DejaVuSans-6d" x="314.505859"/>
      <use xlink:href="#DejaVuSans-5d" x="411.917969"/>
     </g>
    </g>
   </g>
   <g id="line2d_29">
    <path d="M 73.832727 295.488 
L 75.546182 295.381906 
L 76.808727 295.094999 
L 77.981091 294.589175 
L 79.063273 293.883525 
L 80.145455 292.921202 
L 81.317818 291.573917 
L 82.580364 289.762199 
L 83.842909 287.531663 
L 85.285818 284.473931 
L 86.999273 280.287315 
L 89.704727 272.987342 
L 92.229818 266.407827 
L 93.853091 262.756595 
L 95.205818 260.215712 
L 96.468364 258.295855 
L 97.640727 256.910298 
L 98.632727 256.053204 
L 99.534545 255.539071 
L 100.436364 255.282935 
L 101.338182 255.276753 
L 102.330182 255.508379 
L 103.412364 256.008599 
L 104.674909 256.866917 
L 107.380364 258.805558 
L 108.101818 259.042133 
L 108.733091 259.030108 
L 109.274182 258.808726 
L 109.815273 258.352734 
L 110.446545 257.477777 
L 111.077818 256.192532 
L 111.799273 254.192508 
L 112.610909 251.260352 
L 113.602909 246.747936 
L 114.775273 240.288001 
L 116.398545 229.943704 
L 120.637091 202.235625 
L 121.899636 195.652273 
L 122.981818 191.104357 
L 123.883636 188.174799 
L 124.695273 186.2411 
L 125.326545 185.226826 
L 125.867636 184.718621 
L 126.318545 184.55901 
L 126.769455 184.646168 
L 127.220364 184.986272 
L 127.761455 185.733904 
L 128.392727 187.077668 
L 129.114182 189.236675 
L 129.925818 192.448928 
L 130.827636 196.952132 
L 131.909818 203.55862 
L 133.172364 212.712087 
L 134.885818 226.927396 
L 137.410909 247.845633 
L 138.312727 253.458539 
L 138.944 256.050928 
L 139.394909 257.020933 
L 139.665455 257.209783 
L 139.936 257.093955 
L 140.206545 256.675158 
L 140.567273 255.663401 
L 141.108364 253.26528 
L 141.829818 248.737882 
L 142.821818 240.872499 
L 147.872 198.364126 
L 149.044364 191.182944 
L 150.036364 186.403317 
L 150.848 183.431608 
L 151.569455 181.524564 
L 152.200727 180.441475 
L 152.741818 179.960794 
L 153.192727 179.882068 
L 153.553455 180.032301 
L 154.004364 180.488845 
L 154.545455 181.432671 
L 155.176727 183.0785 
L 155.898182 185.667606 
L 156.709818 189.457016 
L 157.701818 195.282875 
L 158.874182 203.694035 
L 160.317091 215.837667 
L 163.563636 243.989043 
L 164.285091 247.997642 
L 164.736 249.467015 
L 165.096727 249.944312 
L 165.277091 249.931747 
L 165.547636 249.589691 
L 165.908364 248.532141 
L 166.359273 246.288533 
L 166.900364 242.39914 
L 167.712 234.654221 
L 168.884364 220.920364 
L 173.573818 163.319061 
L 174.836364 151.417629 
L 175.918545 143.276389 
L 176.820364 138.107959 
L 177.541818 135.092694 
L 178.173091 133.301206 
L 178.714182 132.40926 
L 179.074909 132.149879 
L 179.435636 132.162317 
L 179.796364 132.449249 
L 180.247273 133.196323 
L 180.788364 134.66284 
L 181.419636 137.153268 
L 182.141091 141.004257 
L 182.952727 146.561653 
L 183.944727 154.988823 
L 185.117091 166.983236 
L 186.650182 185.173394 
L 189.896727 224.529321 
L 190.618182 230.639265 
L 191.159273 233.693569 
L 191.52 234.8349 
L 191.790545 235.175086 
L 191.970909 235.147918 
L 192.241455 234.723886 
L 192.602182 233.45708 
L 193.053091 230.817954 
L 193.684364 225.427562 
L 194.496 216.307386 
L 195.758545 199.2725 
L 199.636364 145.347678 
L 200.989091 129.999895 
L 202.161455 119.083316 
L 203.153455 111.782346 
L 203.965091 107.221362 
L 204.686545 104.280327 
L 205.317818 102.590113 
L 205.768727 101.899435 
L 206.129455 101.663269 
L 206.490182 101.712695 
L 206.850909 102.05067 
L 207.301818 102.881351 
L 207.842909 104.479044 
L 208.474182 107.17414 
L 209.195636 111.344112 
L 210.007273 117.386507 
L 210.999273 126.613574 
L 212.171636 139.896822 
L 213.524364 157.906144 
L 215.508364 187.664441 
L 217.582545 218.164914 
L 218.484364 228.401897 
L 219.115636 233.193085 
L 219.566545 235.015434 
L 219.837091 235.390146 
L 220.017455 235.33085 
L 220.288 234.780693 
L 220.648727 233.218024 
L 221.099636 230.054373 
L 221.730909 223.776918 
L 222.632727 212.273542 
L 224.706909 181.838227 
L 226.510545 157.086937 
L 227.773091 142.689683 
L 228.855273 132.841065 
L 229.757091 126.584722 
L 230.478545 122.94307 
L 231.109818 120.794459 
L 231.560727 119.861665 
L 231.921455 119.480393 
L 232.282182 119.425783 
L 232.552727 119.59942 
L 232.913455 120.115901 
L 233.364364 121.215306 
L 233.905455 123.188628 
L 234.536727 126.365015 
L 235.348364 131.757017 
L 236.250182 139.325422 
L 237.332364 150.310128 
L 238.775273 167.38331 
L 241.751273 203.462001 
L 242.562909 210.467211 
L 243.104 213.601815 
L 243.554909 215.054199 
L 243.825455 215.369464 
L 244.005818 215.338861 
L 244.276364 214.927821 
L 244.637091 213.703783 
L 245.088 211.131588 
L 245.629091 206.658424 
L 246.350545 198.744617 
L 247.432727 183.945389 
L 249.416727 152.795706 
L 251.761455 117.052374 
L 253.204364 98.321281 
L 254.376727 85.705754 
L 255.368727 77.113432 
L 256.270545 71.098711 
L 256.992 67.595755 
L 257.623273 65.523822 
L 258.164364 64.500886 
L 258.525091 64.209145 
L 258.795636 64.196171 
L 259.156364 64.453957 
L 259.517091 65.026497 
L 259.968 66.184315 
L 260.509091 68.218335 
L 261.140364 71.46954 
L 261.952 77.009497 
L 262.853818 84.888621 
L 263.845818 95.532338 
L 265.018182 110.567339 
L 266.461091 132.203849 
L 268.354909 164.287208 
L 271.150545 211.78704 
L 272.052364 223.685836 
L 272.683636 229.616316 
L 273.134545 232.245061 
L 273.495273 233.255162 
L 273.675636 233.382703 
L 273.856 233.259579 
L 274.126545 232.617229 
L 274.487273 230.958807 
L 274.938182 227.755222 
L 275.659636 220.63232 
L 276.741818 207.298944 
L 279.627636 170.796853 
L 280.8 158.824742 
L 281.792 150.68184 
L 282.693818 145.01151 
L 283.415273 141.736421 
L 284.046545 139.831084 
L 284.497455 139.030383 
L 284.858182 138.727664 
L 285.218909 138.72504 
L 285.579636 139.020714 
L 286.030545 139.803181 
L 286.571636 141.330088 
L 287.202909 143.885026 
L 287.924364 147.750279 
L 288.826182 153.833864 
L 289.998545 163.413313 
L 293.966545 197.698801 
L 294.688 201.422791 
L 295.229091 203.10092 
L 295.589818 203.615481 
L 295.860364 203.665105 
L 296.130909 203.419467 
L 296.491636 202.630037 
L 296.942545 200.912869 
L 297.483636 197.83723 
L 298.205091 192.208574 
L 299.106909 183.218118 
L 300.459636 167.144033 
L 304.788364 113.818868 
L 306.141091 100.547145 
L 307.223273 91.888387 
L 308.125091 86.196355 
L 308.936727 82.372751 
L 309.568 80.288579 
L 310.109091 79.142778 
L 310.56 78.651959 
L 310.920727 78.568372 
L 311.281455 78.76241 
L 311.642182 79.23594 
L 312.093091 80.222496 
L 312.634182 81.985085 
L 313.265455 84.83517 
L 313.986909 89.125072 
L 314.888727 95.985903 
L 315.880727 105.346013 
L 317.053091 118.62145 
L 318.496 137.727358 
L 320.570182 168.644943 
L 322.914909 202.908497 
L 323.906909 214.360718 
L 324.628364 220.356434 
L 325.169455 223.176385 
L 325.530182 224.165843 
L 325.800727 224.426267 
L 325.981091 224.37184 
L 326.251636 223.956621 
L 326.612364 222.811445 
L 327.063273 220.522983 
L 327.694545 216.008073 
L 328.596364 207.750739 
L 332.834909 166.49647 
L 333.917091 159.022099 
L 334.818909 154.28048 
L 335.540364 151.56136 
L 336.171636 150.021869 
L 336.622545 149.419709 
L 336.983273 149.239568 
L 337.344 149.325534 
L 337.704727 149.672958 
L 338.155636 150.465301 
L 338.696727 151.92129 
L 339.328 154.275204 
L 340.139636 158.251511 
L 341.131636 164.364002 
L 342.394182 173.618848 
L 344.919273 194.339899 
L 346.452364 205.826575 
L 347.444364 211.66027 
L 348.165818 214.727048 
L 348.706909 216.25472 
L 349.157818 216.982449 
L 349.518545 217.199068 
L 349.789091 217.149094 
L 350.149818 216.805355 
L 350.600727 215.949325 
L 351.141818 214.345469 
L 351.863273 211.361118 
L 352.765091 206.583886 
L 354.208 197.562448 
L 356.642909 182.394402 
L 357.815273 176.426643 
L 358.807273 172.420804 
L 359.618909 169.935868 
L 360.340364 168.346498 
L 360.971636 167.446162 
L 361.512727 167.04431 
L 361.963636 166.972531 
L 362.414545 167.139576 
L 362.865455 167.54287 
L 363.406545 168.331505 
L 364.037818 169.652021 
L 364.849455 171.921569 
L 365.931636 175.734547 
L 368.997818 187.127523 
L 369.629091 188.549804 
L 370.08 189.159368 
L 370.440727 189.36157 
L 370.801455 189.283077 
L 371.162182 188.902328 
L 371.613091 187.975198 
L 372.154182 186.172135 
L 372.785455 183.101824 
L 373.506909 178.354279 
L 374.408727 170.727937 
L 375.490909 159.537215 
L 377.024 141.171641 
L 380.992 92.565824 
L 382.344727 79.148243 
L 383.517091 69.653433 
L 384.509091 63.283537 
L 385.410909 58.856171 
L 386.132364 56.263371 
L 386.763636 54.698262 
L 387.304727 53.887024 
L 387.755636 53.589643 
L 388.116364 53.6023 
L 388.477091 53.839505 
L 388.928 54.453733 
L 389.469091 55.656905 
L 390.100364 57.689503 
L 390.821818 60.802027 
L 391.723636 65.815041 
L 392.715636 72.66335 
L 393.978182 83.085967 
L 395.601455 98.5257 
L 397.946182 123.220119 
L 398.487273 129.122435 
L 398.487273 129.122435 
" clip-path="url(#p2295f2f0ed)" style="fill: none; stroke: #1f77b4; stroke-width: 2; stroke-linecap: square"/>
   </g>
   <g id="patch_3">
    <path d="M 57.6 307.584 
L 57.6 41.472 
" style="fill: none; stroke: #000000; stroke-width: 0.8; stroke-linejoin: miter; stroke-linecap: square"/>
   </g>
   <g id="patch_4">
    <path d="M 414.72 307.584 
L 414.72 41.472 
" style="fill: none; stroke: #000000; stroke-width: 0.8; stroke-linejoin: miter; stroke-linecap: square"/>
   </g>
   <g id="patch_5">
    <path d="M 57.6 307.584 
L 414.72 307.584 
" style="fill: none; stroke: #000000; stroke-width: 0.8; stroke-linejoin: miter; stroke-linecap: square"/>
   </g>
   <g id="patch_6">
    <path d="M 57.6 41.472 
L 414.72 41.472 
" style="fill: none; stroke: #000000; stroke-width: 0.8; stroke-linejoin: miter; stroke-linecap: square"/>
   </g>
   <g id="text_17">
    <!-- MRS example 2 mission Position Delta to Reference -->
    <g transform="translate(81.509062 35.472)scale(0.12 -0.12)">
     <defs>
      <path id="DejaVuSans-52" d="M 2841 2188 
Q 3044 2119 3236 1894 
Q 3428 1669 3622 1275 
L 4263 0 
L 3584 0 
L 2988 1197 
Q 2756 1666 2539 1819 
Q 2322 1972 1947 1972 
L 1259 1972 
L 1259 0 
L 628 0 
L 628 4666 
L 2053 4666 
Q 2853 4666 3247 4331 
Q 3641 3997 3641 3322 
Q 3641 2881 3436 2590 
Q 3231 2300 2841 2188 
z
M 1259 4147 
L 1259 2491 
L 2053 2491 
Q 2509 2491 2742 2702 
Q 2975 2913 2975 3322 
Q 2975 3731 2742 3939 
Q 2509 4147 2053 4147 
L 1259 4147 
z
" transform="scale(0.015625)"/>
      <path id="DejaVuSans-53" d="M 3425 4513 
L 3425 3897 
Q 3066 4069 2747 4153 
Q 2428 4238 2131 4238 
Q 1616 4238 1336 4038 
Q 1056 3838 1056 3469 
Q 1056 3159 1242 3001 
Q 1428 2844 1947 2747 
L 2328 2669 
Q 3034 2534 3370 2195 
Q 3706 1856 3706 1288 
Q 3706 609 3251 259 
Q 2797 -91 1919 -91 
Q 1588 -91 1214 -16 
Q 841 59 441 206 
L 441 856 
Q 825 641 1194 531 
Q 1563 422 1919 422 
Q 2459 422 2753 634 
Q 3047 847 3047 1241 
Q 3047 1584 2836 1778 
Q 2625 1972 2144 2069 
L 1759 2144 
Q 1053 2284 737 2584 
Q 422 2884 422 3419 
Q 422 4038 858 4394 
Q 1294 4750 2059 4750 
Q 2388 4750 2728 4690 
Q 3069 4631 3425 4513 
z
" transform="scale(0.015625)"/>
      <path id="DejaVuSans-65" d="M 3597 1894 
L 3597 1613 
L 953 1613 
Q 991 1019 1311 708 
Q 1631 397 2203 397 
Q 2534 397 2845 478 
Q 3156 559 3463 722 
L 3463 178 
Q 3153 47 2828 -22 
Q 2503 -91 2169 -91 
Q 1331 -91 842 396 
Q 353 884 353 1716 
Q 353 2575 817 3079 
Q 1281 3584 2069 3584 
Q 2775 3584 3186 3129 
Q 3597 2675 3597 1894 
z
M 3022 2063 
Q 3016 2534 2758 2815 
Q 2500 3097 2075 3097 
Q 1594 3097 1305 2825 
Q 1016 2553 972 2059 
L 3022 2063 
z
" transform="scale(0.015625)"/>
      <path id="DejaVuSans-78" d="M 3513 3500 
L 2247 1797 
L 3578 0 
L 2900 0 
L 1881 1375 
L 863 0 
L 184 0 
L 1544 1831 
L 300 3500 
L 978 3500 
L 1906 2253 
L 2834 3500 
L 3513 3500 
z
" transform="scale(0.015625)"/>
      <path id="DejaVuSans-61" d="M 2194 1759 
Q 1497 1759 1228 1600 
Q 959 1441 959 1056 
Q 959 750 1161 570 
Q 1363 391 1709 391 
Q 2188 391 2477 730 
Q 2766 1069 2766 1631 
L 2766 1759 
L 2194 1759 
z
M 3341 1997 
L 3341 0 
L 2766 0 
L 2766 531 
Q 2569 213 2275 61 
Q 1981 -91 1556 -91 
Q 1019 -91 701 211 
Q 384 513 384 1019 
Q 384 1609 779 1909 
Q 1175 2209 1959 2209 
L 2766 2209 
L 2766 2266 
Q 2766 2663 2505 2880 
Q 2244 3097 1772 3097 
Q 1472 3097 1187 3025 
Q 903 2953 641 2809 
L 641 3341 
Q 956 3463 1253 3523 
Q 1550 3584 1831 3584 
Q 2591 3584 2966 3190 
Q 3341 2797 3341 1997 
z
" transform="scale(0.015625)"/>
      <path id="DejaVuSans-70" d="M 1159 525 
L 1159 -1331 
L 581 -1331 
L 581 3500 
L 1159 3500 
L 1159 2969 
Q 1341 3281 1617 3432 
Q 1894 3584 2278 3584 
Q 2916 3584 3314 3078 
Q 3713 2572 3713 1747 
Q 3713 922 3314 415 
Q 2916 -91 2278 -91 
Q 1894 -91 1617 61 
Q 1341 213 1159 525 
z
M 3116 1747 
Q 3116 2381 2855 2742 
Q 2594 3103 2138 3103 
Q 1681 3103 1420 2742 
Q 1159 2381 1159 1747 
Q 1159 1113 1420 752 
Q 1681 391 2138 391 
Q 2594 391 2855 752 
Q 3116 1113 3116 1747 
z
" transform="scale(0.015625)"/>
      <path id="DejaVuSans-6c" d="M 603 4863 
L 1178 4863 
L 1178 0 
L 603 0 
L 603 4863 
z
" transform="scale(0.015625)"/>
      <path id="DejaVuSans-69" d="M 603 3500 
L 1178 3500 
L 1178 0 
L 603 0 
L 603 3500 
z
M 603 4863 
L 1178 4863 
L 1178 4134 
L 603 4134 
L 603 4863 
z
" transform="scale(0.015625)"/>
      <path id="DejaVuSans-6e" d="M 3513 2113 
L 3513 0 
L 2938 0 
L 2938 2094 
Q 2938 2591 2744 2837 
Q 2550 3084 2163 3084 
Q 1697 3084 1428 2787 
Q 1159 2491 1159 1978 
L 1159 0 
L 581 0 
L 581 3500 
L 1159 3500 
L 1159 2956 
Q 1366 3272 1645 3428 
Q 1925 3584 2291 3584 
Q 2894 3584 3203 3211 
Q 3513 2838 3513 2113 
z
" transform="scale(0.015625)"/>
      <path id="DejaVuSans-50" d="M 1259 4147 
L 1259 2394 
L 2053 2394 
Q 2494 2394 2734 2622 
Q 2975 2850 2975 3272 
Q 2975 3691 2734 3919 
Q 2494 4147 2053 4147 
L 1259 4147 
z
M 628 4666 
L 2053 4666 
Q 2838 4666 3239 4311 
Q 3641 3956 3641 3272 
Q 3641 2581 3239 2228 
Q 2838 1875 2053 1875 
L 1259 1875 
L 1259 0 
L 628 0 
L 628 4666 
z
" transform="scale(0.015625)"/>
      <path id="DejaVuSans-74" d="M 1172 4494 
L 1172 3500 
L 2356 3500 
L 2356 3053 
L 1172 3053 
L 1172 1153 
Q 1172 725 1289 603 
Q 1406 481 1766 481 
L 2356 481 
L 2356 0 
L 1766 0 
Q 1100 0 847 248 
Q 594 497 594 1153 
L 594 3053 
L 172 3053 
L 172 3500 
L 594 3500 
L 594 4494 
L 1172 4494 
z
" transform="scale(0.015625)"/>
      <path id="DejaVuSans-44" d="M 1259 4147 
L 1259 519 
L 2022 519 
Q 2988 519 3436 956 
Q 3884 1394 3884 2338 
Q 3884 3275 3436 3711 
Q 2988 4147 2022 4147 
L 1259 4147 
z
M 628 4666 
L 1925 4666 
Q 3281 4666 3915 4102 
Q 4550 3538 4550 2338 
Q 4550 1131 3912 565 
Q 3275 0 1925 0 
L 628 0 
L 628 4666 
z
" transform="scale(0.015625)"/>
      <path id="DejaVuSans-66" d="M 2375 4863 
L 2375 4384 
L 1825 4384 
Q 1516 4384 1395 4259 
Q 1275 4134 1275 3809 
L 1275 3500 
L 2222 3500 
L 2222 3053 
L 1275 3053 
L 1275 0 
L 697 0 
L 697 3053 
L 147 3053 
L 147 3500 
L 697 3500 
L 697 3744 
Q 697 4328 969 4595 
Q 1241 4863 1831 4863 
L 2375 4863 
z
" transform="scale(0.015625)"/>
      <path id="DejaVuSans-63" d="M 3122 3366 
L 3122 2828 
Q 2878 2963 2633 3030 
Q 2388 3097 2138 3097 
Q 1578 3097 1268 2742 
Q 959 2388 959 1747 
Q 959 1106 1268 751 
Q 1578 397 2138 397 
Q 2388 397 2633 464 
Q 2878 531 3122 666 
L 3122 134 
Q 2881 22 2623 -34 
Q 2366 -91 2075 -91 
Q 1284 -91 818 406 
Q 353 903 353 1747 
Q 353 2603 823 3093 
Q 1294 3584 2113 3584 
Q 2378 3584 2631 3529 
Q 2884 3475 3122 3366 
z
" transform="scale(0.015625)"/>
     </defs>
     <use xlink:href="#DejaVuSans-4d"/>
     <use xlink:href="#DejaVuSans-52" x="86.279297"/>
     <use xlink:href="#DejaVuSans-53" x="155.761719"/>
     <use xlink:href="#DejaVuSans-20" x="219.238281"/>
     <use xlink:href="#DejaVuSans-65" x="251.025391"/>
     <use xlink:href="#DejaVuSans-78" x="310.798828"/>
     <use xlink:href="#DejaVuSans-61" x="369.978516"/>
     <use xlink:href="#DejaVuSans-6d" x="431.257812"/>
     <use xlink:href="#DejaVuSans-70" x="528.669922"/>
     <use xlink:href="#DejaVuSans-6c" x="592.146484"/>
     <use xlink:href="#DejaVuSans-65" x="619.929688"/>
     <use xlink:href="#DejaVuSans-20" x="681.453125"/>
     <use xlink:href="#DejaVuSans-32" x="713.240234"/>
     <use xlink:href="#DejaVuSans-20" x="776.863281"/>
     <use xlink:href="#DejaVuSans-6d" x="808.650391"/>
     <use xlink:href="#DejaVuSans-69" x="906.0625"/>
     <use xlink:href="#DejaVuSans-73" x="933.845703"/>
     <use xlink:href="#DejaVuSans-73" x="985.945312"/>
     <use xlink:href="#DejaVuSans-69" x="1038.044922"/>
     <use xlink:href="#DejaVuSans-6f" x="1065.828125"/>
     <use xlink:href="#DejaVuSans-6e" x="1127.009766"/>
     <use xlink:href="#DejaVuSans-20" x="1190.388672"/>
     <use xlink:href="#DejaVuSans-50" x="1222.175781"/>
     <use xlink:href="#DejaVuSans-6f" x="1278.853516"/>
     <use xlink:href="#DejaVuSans-73" x="1340.035156"/>
     <use xlink:href="#DejaVuSans-69" x="1392.134766"/>
     <use xlink:href="#DejaVuSans-74" x="1419.917969"/>
     <use xlink:href="#DejaVuSans-69" x="1459.126953"/>
     <use xlink:href="#DejaVuSans-6f" x="1486.910156"/>
     <use xlink:href="#DejaVuSans-6e" x="1548.091797"/>
     <use xlink:href="#DejaVuSans-20" x="1611.470703"/>
     <use xlink:href="#DejaVuSans-44" x="1643.257812"/>
     <use xlink:href="#DejaVuSans-65" x="1720.259766"/>
     <use xlink:href="#DejaVuSans-6c" x="1781.783203"/>
     <use xlink:href="#DejaVuSans-74" x="1809.566406"/>
     <use xlink:href="#DejaVuSans-61" x="1848.775391"/>
     <use xlink:href="#DejaVuSans-20" x="1910.054688"/>
     <use xlink:href="#DejaVuSans-74" x="1941.841797"/>
     <use xlink:href="#DejaVuSans-6f" x="1981.050781"/>
     <use xlink:href="#DejaVuSans-20" x="2042.232422"/>
     <use xlink:href="#DejaVuSans-52" x="2074.019531"/>
     <use xlink:href="#DejaVuSans-65" x="2139.001953"/>
     <use xlink:href="#DejaVuSans-66" x="2200.525391"/>
     <use xlink:href="#DejaVuSans-65" x="2235.730469"/>
     <use xlink:href="#DejaVuSans-72" x="2297.253906"/>
     <use xlink:href="#DejaVuSans-65" x="2336.117188"/>
     <use xlink:href="#DejaVuSans-6e" x="2397.640625"/>
     <use xlink:href="#DejaVuSans-63" x="2461.019531"/>
     <use xlink:href="#DejaVuSans-65" x="2516"/>
    </g>
   </g>
  </g>
 </g>
 <defs>
  <clipPath id="p2295f2f0ed">
   <rect x="57.6" y="41.472" width="357.12" height="266.112"/>
  </clipPath>
 </defs>
</svg>
